<?xml version="1.0" encoding="UTF-8"?>
<svg xmlns="http://www.w3.org/2000/svg" width="512" height="512" viewBox="0 0 512 512">
  <rect width="512" height="512" rx="80" fill="#1a1a2e"/>
  <g transform="translate(256,256) scale(4.8) translate(-828.08,-484.2)">
    <path
      d="m 828.08,437.63 c -8.95,0 -17.3,2.53 -24.4,6.9 12.03,0.08 20.29,3.73 26.45,13.13 -8.37,-5.37 -37.36,-6.33 -46.33,12.13 -1.48,4.54 -2.28,9.38 -2.28,14.4 0,23.01 16.7,42.11 38.63,45.88 0.71,-7.83 0.45,-19.66 -5.8,-27.56 -1.53,-1.06 -2.92,-2.31 -4.14,-3.71 -3.4,-3.91 -5.45,-9.02 -5.45,-14.61 0,-12.31 9.98,-22.29 22.29,-22.29 12.31,0 22.29,9.98 22.29,22.29 0,12.31 -9.98,22.29 -22.29,22.29 -0.88,0 -1.75,-0.05 -2.6,-0.15 3.99,7.83 3.96,17.76 3.29,24.42 0.11,0 0.23,0 0.34,0 25.72,0 46.57,-20.85 46.57,-46.57 0,-25.72 -20.85,-46.57 -46.57,-46.57 z"
      fill="#ffffff"/>
  </g>
</svg>
